<svg viewBox="0 0 48 48" xmlns="http://www.w3.org/2000/svg"><path d="M40 3H8a3 3 0 00-3 3l.058 10H43V6a3 3 0 00-3-3z" fill="#BDBDBD"/><path d="M43.992 41.792L43 27l-19-9-19 9-.992 14.792A3 3 0 007 45h34a3 3 0 002.992-3.208z" fill="#4285F4"/><path d="M34.56 4.94L40.623 11 43 27l.992 14.792A3 3 0 0141 45H23L5 27l12.41-15.971-3.97-3.969 2.12-2.12 8.079 8.074 13.116-1.64L32.44 7.06l2.12-2.12z" fill-opacity=".1" fill="#000"/><path d="M14.5 4.5a1.5 1.5 0 110 3 1.5 1.5 0 010-3zm19 0a1.5 1.5 0 110 3 1.5 1.5 0 010-3z" fill="#F5F5F5"/><path d="M42 9H6a3 3 0 00-2.973 3.41L5 27h38l1.972-14.59A3 3 0 0042 9z" fill="#386FE3"/><path d="M15.594 25.914h1.629c1.023-.016 1.828-.285 2.414-.809.586-.523.879-1.23.879-2.12 0-2-.996-3-2.989-3-.937 0-1.685.267-2.244.802-.558.535-.838 1.244-.838 2.127h-2.168c0-1.352.494-2.475 1.483-3.37.988-.894 2.244-1.34 3.767-1.34 1.61 0 2.871.425 3.785 1.276.915.852 1.372 2.036 1.372 3.551 0 .742-.24 1.461-.721 2.157-.48.695-1.135 1.214-1.963 1.558.938.297 1.662.79 2.174 1.477s.767 1.527.767 2.52c0 1.53-.5 2.745-1.5 3.644-1 .898-2.3 1.347-3.902 1.347-1.602 0-2.904-.433-3.908-1.3-1.004-.868-1.506-2.012-1.506-3.434h2.18c0 .898.293 1.617.879 2.156.586.54 1.37.809 2.355.809 1.047 0 1.848-.274 2.402-.82.555-.547.832-1.332.832-2.356 0-.992-.304-1.754-.914-2.285-.609-.531-1.488-.805-2.636-.82h-1.63v-1.77zM33.043 35.5h-2.18V21.05l-4.37 1.606v-1.968l6.21-2.333h.34V35.5z" fill="#F5F5F5"/><path d="M42 9H6a3 3 0 00-2.973 3.41L5 27h38l1.972-14.59A3 3 0 0042 9z" fill-opacity=".113" fill="#182D80"/></svg>