<svg viewBox="0 0 48 48" xmlns="http://www.w3.org/2000/svg"><g fill="none" fill-rule="evenodd"><path d="M42.4 36S-.5 11.5 4 33.2A21.923 21.923 0 0 0 24 46a21.933 21.933 0 0 0 18.4-9.894V36z" fill="#255FDB" fill-rule="nonzero"/><path d="M46 24c0 1.02-.069 2.023-.201 3.006C41.5 48 2.6 14.8 2 24c0-5.333 1.873-10.208 5-14.005C15 3 21 3.5 21 3.5s21.972 22.706 24.979 19.522c.014.324.021.65.021.978z" fill="#91BFFF"/><path d="M42.4 36.106a21.882 21.882 0 0 0 3.399-9.1C44.194 34.402 32.998 38.196 24 24.4 13.6 8.6 2.6 14.8 2 24c0 3.315.723 6.452 2.022 9.264A.343.343 0 0 0 4 33.2C2.6 26.8 9.4 22 17 32c9 11.8 20.2 10.4 25.4 4v.106z" fill="#4285F4" fill-rule="nonzero"/><path d="M17.128 3.084A22.148 22.148 0 0 1 24 2a21.933 21.933 0 0 1 21.13 15.821C41 24 17.128 3.084 17.128 3.084z" fill="#F5F5F5" fill-rule="nonzero"/><path d="M7 9.995C15 3 23.2 4.8 30.8 17.6c6.186 9.777 12.172 8.606 15.179 5.422a22.119 22.119 0 0 0-.85-5.2c-2.565.774-4.558.533-7.729-4.422C32.79 6.293 26.15.846 17.128 3.084A21.898 21.898 0 0 0 7 9.994z" fill="#C4E1FF" fill-rule="nonzero"/></g></svg>