<svg viewBox="0 0 48 48" xmlns="http://www.w3.org/2000/svg"><g fill="none" fill-rule="evenodd"><path fill="#E1E1E1" d="M7 15.25h37L7 40z"/><path fill="#EEE" d="M24 27.635L7 40h34V15.25z"/><path d="M7 40H4.995A2.991 2.991 0 0 1 2 37.004V10.996A2.997 2.997 0 0 1 5 8l19 13L43 8c1.657 0 3 1.334 3 2.996v26.008A2.995 2.995 0 0 1 43.005 40H41V16.003L24 27.635 7 16.003V40z" fill="#EA4335"/><path d="M29.758 40h13.244A2.996 2.996 0 0 0 46 37.006V11a2.997 2.997 0 0 1-1.305 2.475L24 27.635 3.305 13.475a3.01 3.01 0 0 1-.359-.289L29.758 40z" fill-opacity=".1" fill="#000"/><path fill="#F1F1F1" d="M5 8l19 13L43 8z"/></g></svg>