<svg viewBox="0 0 48 48" xmlns="http://www.w3.org/2000/svg"><g fill="none" fill-rule="evenodd"><path d="M5 7.998A3.004 3.004 0 0 1 7.998 5h32.004A2.995 2.995 0 0 1 43 7.993V32l-8 3-3 8H7.993A3.002 3.002 0 0 1 5 40.002V7.998z" fill="#FBBC05"/><path fill-opacity=".1" fill="#BF360C" d="M18 26l-2-8 5-6 9.364 1.636 12.64 12.64V32L35 35l-3 8.004h-4.996L19 35l1-8z"/><path d="M32 43v-7.994A3.008 3.008 0 0 1 35.006 32H43L32 43z" fill="#FADA80"/><path d="M27 26.326a7 7 0 1 0-6 0V29h6v-2.674zm-8 1.158V35h2v2h6v-2h2v-7.516a9 9 0 1 0-10 0zM21 31v2h6v-2h-6z" fill="#FFF"/></g></svg>