<svg viewBox="0 0 48 48" xmlns="http://www.w3.org/2000/svg"><path d="M37.298 11.054c-2.441 8.238-5.42 11.774-8.934 10.607l.06-.072a5.696 5.696 0 00-8.785-7.254c-3.01-2.651-.028-6.192 8.947-10.621a15.044 15.044 0 018.712 7.34z" fill="#4285F4"/><path d="M19.636 14.339a5.696 5.696 0 108.728 7.322c3.293 2.844-.397 7.226-11.071 13.144-2.43-3.087-5.1-6.068-6.737-9.687 3.298-9.365 6.325-12.959 9.08-10.78z" fill="#FBBC05"/><path d="M12.51 8.358c3.83-1.42 6.206.573 7.126 5.98l-9.08 10.78C9.603 23.012 9 20.688 9 18a14.94 14.94 0 013.51-9.642z" fill="#EA4335"/><path d="M39 18c0 11.535-11.108 16.377-13.386 26.155-.142.76-.811 1.74-1.584 1.756h-.06c-.773-.016-1.442-.996-1.584-1.756-.836-3.59-2.863-6.515-5.094-9.35l20.006-23.75A14.935 14.935 0 0139 18z" fill="#34A853"/><path d="M24 3c1.6 0 3.14.25 4.586.714l-8.95 10.624-7.127-5.98A14.968 14.968 0 0124 3z" fill="#1A73E8"/></svg>