<svg viewBox="0 0 48 48" xmlns="http://www.w3.org/2000/svg"><g fill="none"><path d="M37 30.42c0 .612-.505 1.115-1.123 1.115H12.122A1.122 1.122 0 0 1 11 30.42V7.115C11 6.503 11.505 6 12.123 6h23.754C36.495 6 37 6.503 37 7.115V30.42z" fill="#0C9D58"/><path d="M16.765 29.705c-.16.598.16 1.21.712 1.358L39.48 36.98c.553.148 1.135-.22 1.295-.82l5.183-19.345c.16-.598-.16-1.21-.713-1.358L23.243 9.54c-.553-.147-1.135.22-1.295.82l-5.183 19.345z" fill="#EA4335"/><path d="M37 11.99v1.245l-8.902-2.39L37 11.99zM24.43 7.215c.518-.242 1.155.02 1.418.583v.014l-14.9 5.423 13.482-6.02zM41 23.72l1.157 7.03L41 35.07V23.72zM28.099 10.851l1.088.292.695 4.607-1.783-4.899z" fill-opacity=".1" fill="#000"/><path d="M34.093 27.323c.212.582-.056 1.217-.59 1.415l-23.218 8.45c-.537.194-1.15-.12-1.363-.703l-6.85-18.822c-.212-.583.055-1.218.59-1.416l23.218-8.45c.538-.194 1.15.12 1.363.703l6.85 18.823z" fill="#FFC107"/><path d="M41 40.875c0 .62-.505 1.125-1.125 1.125H8.125C7.505 42 7 41.495 7 40.875v-24a1.13 1.13 0 0 1 1.125-1.125h31.75c.62 0 1.125.508 1.125 1.125v24z" fill="#4285F4"/><path d="M34.938 25.25h-9.5v-2.5h9.5c.274 0 .5.225.5.5v1.5c0 .275-.226.5-.5.5zm0 9.5h-9.5v-2.5h9.5c.274 0 .5.225.5.5v1.5c0 .275-.226.5-.5.5zm1.5-4.75h-11v-2.5h11c.274 0 .5.225.5.5v1.5c0 .275-.226.5-.5.5zm-19.5-2.25h5.65c.057.365.095.745.095 1.137 0 3.428-2.28 5.863-5.745 5.863a6 6 0 0 1 0-12c1.617 0 2.975.595 4.015 1.563l-1.713 1.712c-.625-.595-1.417-.9-2.302-.9-1.965 0-3.558 1.66-3.558 3.625s1.592 3.625 3.557 3.625c1.76 0 2.968-.995 3.235-2.37h-3.235V27.75z" fill="#FFF"/></g></svg>