<svg viewBox="0 0 48 48" xmlns="http://www.w3.org/2000/svg"><g fill="none" fill-rule="evenodd"><circle stroke="#E8EAED" fill="#FFF" cx="24" cy="24" r="21.5"/><path d="M38.407 24.344c0-1.08-.1-2.11-.28-3.1H24.004v5.751h8.081c-.33 1.91-1.39 3.53-3.01 4.61v3.761h4.852c2.839-2.6 4.48-6.45 4.48-11.022z" fill="#4285F4"/><path d="M24.004 39.007c4.051 0 7.44-1.34 9.932-3.63l-4.85-3.761c-1.341.9-3.062 1.43-5.082 1.43-3.9 0-7.21-2.64-8.392-6.191h-5v3.882c2.47 4.9 7.531 8.27 13.392 8.27z" fill="#34A853"/><path d="M10.611 30.736l5.002-3.882c-.3-.9-.47-1.86-.47-2.85s.17-1.95.47-2.85v-3.88H10.61A14.942 14.942 0 0 0 9 24.004c0 2.421.59 4.701 1.61 6.732z" fill="#FBBC05"/><path d="M24.004 14.972c2.2 0 4.181.76 5.742 2.241l4.3-4.3C31.444 10.493 28.054 9 24.003 9c-5.86 0-10.922 3.371-13.393 8.272l5.002 3.881c1.18-3.55 4.49-6.182 8.391-6.182z" fill="#EA4335"/></g></svg>