<svg viewBox="0 0 48 48" xmlns="http://www.w3.org/2000/svg"><g fill="none" fill-rule="evenodd"><path d="M28 2H11C9.35 2 8 3.35 8 5v38c0 1.65 1.35 3 3 3h26c1.65 0 3-1.35 3-3V14l-7-5-5-7z" fill="#FBBC05"/><path d="M30.5 22h-13c-.825 0-1.5.675-1.5 1.5v13c0 .825.675 1.5 1.5 1.5h13c.825 0 1.5-.675 1.5-1.5v-13c0-.825-.675-1.5-1.5-1.5zM30 33H18v-7h12v7z" fill="#FFF"/><path fill-opacity=".1" fill="#BF360C" d="M28.878 13.123L40 24.242V14z"/><path d="M28 2v9a3 3 0 0 0 3 3h9L28 2z" fill="#FBDD81"/></g></svg>