<svg viewBox="0 0 48 48" xmlns="http://www.w3.org/2000/svg"><g fill="none" fill-rule="evenodd"><path d="M22 10h21.009A2.999 2.999 0 0 1 46 13.007v29.986A3.003 3.003 0 0 1 43.006 46H26l-4-36z" fill="#EEE"/><path d="M33.135 29.75l-5.212 5.154 1.404 1.404 5.173-5.173 5.173 5.173 1.404-1.404-5.212-5.154c1.731-1.98 3.077-4.327 3.693-6.75H42v-2h-6.5v-2h-2v2H27v2h10.5s-.654 2.52-3 5.27A16.623 16.623 0 0 1 32.314 25h-2.195c.718 1.701 1.767 3.32 3.016 4.75z" fill="#607D8B"/><path fill="#4D5DBA" d="M34 38l-6-2-4.667 2L26 46z"/><path d="M2 5.007A3.003 3.003 0 0 1 4.994 2H22l12 36H4.996A3.001 3.001 0 0 1 2 34.993V5.007z" fill="#4285F4"/><path d="M15 25a4.5 4.5 0 1 1 2.343-8.343L19.5 14.5a7.5 7.5 0 1 0 2.85 4.5H15v3h4.244A4.502 4.502 0 0 1 15 25z" fill="#FFF"/></g></svg>